<?xml version="1.0" encoding="utf-8"?>
<!-- Generator: Adobe Illustrator 21.0.0, SVG Export Plug-In . SVG Version: 6.00 Build 0)  -->
<svg version="1.1" id="Capa_1" xmlns="http://www.w3.org/2000/svg" xmlns:xlink="http://www.w3.org/1999/xlink" x="0px" y="0px"
	 viewBox="0 0 64 64" style="enable-background:new 0 0 64 64;" xml:space="preserve">
<style type="text/css">
	.st0{fill:#FFE75E;}
	.st1{fill:#BFAD47;}
	.st2{fill:#FFEC7E;}
</style>
<path class="st0" d="M10.7,49.3L31,11.2c0.4-0.8,1.6-0.8,2,0l7,14.1L10.7,49.3z"/>
<path class="st0" d="M10.7,49.3l7.4-45.6c0.2-1.2,1.8-1.5,2.4-0.4l14.2,27.3L10.7,49.3z"/>
<path class="st1" d="M10.7,49.3l0.3-0.2L34.3,30l-6.6-12.6L10.7,49.3z"/>
<path class="st2" d="M10.7,49.3L46.2,15c0.7-0.7,2-0.3,2.1,0.7l5,33.6L33.3,61c-0.8,0.5-1.8,0.5-2.6,0L10.7,49.3z"/>
</svg>
